Coordinates
version=1
nRows=11
nColumns=40
inDegrees=yes

Units are S.I. units (second, meters, Newtons, ...)
Angles are in degrees.

endheader
time	pelvis_tilt	pelvis_list	pelvis_rotation	pelvis_tx	pelvis_ty	pelvis_tz	hip_flexion_r	hip_adduction_r	hip_rotation_r	knee_angle_r	knee_angle_r_beta	ankle_angle_r	subtalar_angle_r	mtp_angle_r	hip_flexion_l	hip_adduction_l	hip_rotation_l	knee_angle_l	knee_angle_l_beta	ankle_angle_l	subtalar_angle_l	mtp_angle_l	lumbar_extension	lumbar_bending	lumbar_rotation	arm_flex_r	arm_add_r	arm_rot_r	elbow_flex_r	pro_sup_r	wrist_flex_r	wrist_dev_r	arm_flex_l	arm_add_l	arm_rot_l	elbow_flex_l	pro_sup_l	wrist_flex_l	wrist_dev_l
     54.49378571	     -4.57556882	     -3.04882154	     -9.54112313	      0.89275147	      0.92457269	      0.47474387	     26.53171232	     -0.58441584	     -4.67661501	     20.33453773	     20.33453773	      8.11372346	      3.65290605	      2.09871685	      5.49603768	     -2.71104958	     -8.00525267	     18.74284406	     18.74284406	     18.64431881	    -13.74015002	      1.18353518	    -10.11839780	      6.54566030	      1.28643104	    -16.39216715	    -10.61012962	    -19.65318383	     22.71487473	     47.56700123	      0.00000000	      0.00000000	     34.97455926	    -21.50675181	     -8.27158518	     67.01267463	     47.65906014	      0.00000000	      0.00000000
     54.51257143	     -4.55038783	     -2.86349640	     -9.72842829	      0.89384048	      0.92371924	      0.47841811	     26.17210233	     -0.61244551	     -5.13417422	     19.49226718	     19.49226718	      7.85695623	      4.51207515	      2.09917339	      4.52113854	     -2.63583023	     -8.39747994	     17.92571512	     17.92571512	     18.84442671	    -13.28553826	      0.81348911	     -9.92393654	      6.41212989	      1.50507354	    -16.33539200	    -10.54325816	    -19.64290535	     22.89963647	     47.54982458	      0.00000000	      0.00000000	     35.50497309	    -21.36817979	     -8.59107175	     67.87344969	     47.70007721	      0.00000000	      0.00000000
     54.53135714	     -4.53964410	     -2.66614102	     -9.87298762	      0.89516833	      0.92261817	      0.48218934	     25.91584366	     -0.70116514	     -5.63309388	     19.19285764	     19.19285764	      7.06926965	      4.91576210	     -0.00946490	      3.61659929	     -2.57656862	     -8.82593419	     17.19873168	     17.19873168	     18.69697748	    -12.88868172	     -0.60059652	     -9.75836414	      6.33513320	      1.34440100	    -16.02774892	    -10.58523475	    -19.59729857	     23.95458312	     47.45248467	      0.00000000	      0.00000000	     35.23602043	    -21.26527247	    -10.22993096	     69.99212890	     47.84622224	      0.00000000	      0.00000000
     54.55014286	     -4.53432807	     -2.54222229	     -9.99465233	      0.89670820	      0.92155889	      0.48618624	     25.83976679	     -0.69325665	     -5.86767440	     19.63561486	     19.63561486	      6.95771640	      4.79939786	     -0.45679276	      2.73743903	     -2.58232171	     -9.07429106	     16.60123103	     16.60123103	     19.02955153	    -12.52638643	     -0.69822613	     -9.53945149	      6.32100414	      1.58008972	    -15.48178835	    -10.63918786	    -19.55965217	     24.23384606	     47.43635559	      0.00000000	      0.00000000	     35.59415639	    -21.04844746	    -10.41599359	     70.57256416	     47.87071328	      0.00000000	      0.00000000
     54.56892857	     -4.49526834	     -2.48304975	    -10.12040760	      0.89851117	      0.92060376	      0.49043589	     25.59469295	     -0.56045086	     -5.86180151	     20.03328423	     20.03328423	      6.04195883	      4.06900845	     -3.32099754	      1.82923676	     -2.71217567	     -9.56524692	     16.07738039	     16.07738039	     19.36204215	    -11.83683319	     -0.96239134	     -9.41819729	      6.36938948	      1.42624476	    -14.72786178	    -10.79546541	    -19.54616820	     25.38332487	     47.35291890	      0.00000000	      0.00000000	     34.96560063	    -20.75162404	    -12.17245049	     72.72053737	     48.01731893	      0.00000000	      0.00000000
     54.58771429	     -4.45362994	     -2.46327485	    -10.19554621	      0.90037543	      0.91977339	      0.49484981	     25.47440666	     -0.34371523	     -5.57231972	     20.86809883	     20.86809883	      5.62524763	      2.87385506	     -4.94339318	      0.95448993	     -2.85870686	     -9.77690992	     15.62671804	     15.62671804	     19.73324432	    -11.45785098	     -0.70410943	     -9.29109363	      6.44529037	      1.39749429	    -13.74629471	    -11.00149323	    -19.38640965	     26.04325501	     47.28568024	      0.00000000	      0.00000000	     34.65617996	    -20.54631562	    -12.95150477	     73.70547313	     48.07693601	      0.00000000	      0.00000000
     54.60650000	     -4.40994187	     -2.45488982	    -10.19088859	      0.90227350	      0.91900338	      0.49931453	     25.44108573	     -0.17366202	     -5.42803526	     22.02213314	     22.02213314	      5.79690543	      2.10082557	     -5.40491110	      0.15824591	     -3.03885781	     -9.88234375	     15.30591629	     15.30591629	     19.99645234	    -11.19170269	     -0.59150551	     -9.15404484	      6.51848230	      1.52569975	    -12.70937228	    -11.21089665	    -19.36926405	     26.58134634	     47.26334468	      0.00000000	      0.00000000	     34.59084128	    -20.26799171	    -13.09883826	     73.99030056	     48.08911517	      0.00000000	      0.00000000
     54.62528571	     -4.34204479	     -2.52793235	    -10.09772716	      0.90421245	      0.91844282	      0.50383543	     25.27769305	      0.10842520	     -5.21363725	     23.05830500	     23.05830500	      6.07849583	      1.18268526	     -5.73598597	     -0.56725215	     -3.33639571	     -9.89789083	     15.17742887	     15.17742887	     20.24152315	    -10.97781536	     -0.46011534	     -9.07867600	      6.71287794	      1.58863256	    -11.58239609	    -11.46484089	    -19.39170297	     27.22546935	     47.24249311	      0.00000000	      0.00000000	     34.39680579	    -19.93792371	    -13.24680457	     74.24284520	     48.10041110	      0.00000000	      0.00000000
     54.64407143	     -4.32291617	     -2.64818946	     -9.95144131	      0.90601414	      0.91812686	      0.50868560	     25.05349143	      0.63527076	     -4.43582738	     23.84651309	     23.84651309	      6.17277011	     -0.64329503	     -5.96586038	     -1.02799641	     -3.82974194	    -10.15870520	     15.48323311	     15.48323311	     20.82439400	    -10.18214666	      0.38706489	     -9.01011525	      6.83983994	      1.04577608	    -10.28022538	    -11.65784671	    -19.53934633	     28.93483298	     47.15547468	      0.00000000	      0.00000000	     33.38106073	    -19.75289844	    -14.58609417	     75.59964461	     48.19759508	      0.00000000	      0.00000000
     54.66285714	     -4.23608490	     -2.71363843	     -9.69582286	      0.90777556	      0.91800928	      0.51329208	     24.76346219	      0.91352729	     -4.29220726	     24.65431828	     24.65431828	      6.60318729	     -1.33428774	     -6.10492029	     -1.45163847	     -4.21861017	    -10.01396178	     15.87374815	     15.87374815	     20.88802551	    -10.08393856	      0.52010296	     -8.98079710	      6.92047026	      0.95730050	     -8.98745994	    -11.88961190	    -19.53079519	     29.63720447	     47.12888599	      0.00000000	      0.00000000	     33.09900765	    -19.38968978	    -14.52220077	     75.51442828	     48.18718222	      0.00000000	      0.00000000
     54.68164286	     -4.19671339	     -2.82035060	     -9.33071612	      0.90932311	      0.91808749	      0.51790576	     24.39444711	      1.27910494	     -4.09178211	     25.18014573	     25.18014573	      7.04063342	     -2.24472289	     -5.98147934	     -1.52288676	     -4.75763120	     -9.82022381	     16.78320949	     16.78320949	     20.91667153	     -9.96919726	      0.59549141	     -8.92535952	      7.04138422	      0.67532373	     -7.59515456	    -12.09116848	    -19.54746037	     30.60916964	     47.09079435	      0.00000000	      0.00000000	     32.64173320	    -19.10258601	    -14.48324400	     75.32426893	     48.17501965	      0.00000000	      0.00000000
